<svg version="1.0" preserveAspectRatio="xMidYMid meet" viewBox="0 0 332.09999999999997 170.09999853" zoomAndPan="magnify" xmlns:xlink="http://www.w3.org/1999/xlink" xmlns="http://www.w3.org/2000/svg" style="max-height: 500px" width="332.09999999999997" height="170.09999853"><defs><clipPath id="9ec27bdaf0"><path clip-rule="nonzero" d="M 0 0 L 324 0 L 324 163.5 L 0 163.5 Z M 0 0"/></clipPath></defs><path fill-rule="evenodd" fill-opacity="1" d="M 29.488281 10.953125 L 46.160156 33.417969 L 222.527344 36.625 L 254.75 37.542969 L 283.925781 55.726562 L 308.386719 83.53125 L 318.460938 110.230469 L 312.1875 122.898438 L 290.335938 128.253906 L 211.375 131.003906 L 188.152344 127.636719 L 160.347656 111.445312 L 141.867188 81.214844 L 42.886719 64.726562 L 38.144531 72.398438 L 19.964844 72.398438 L 17.054688 62.160156 L 20.71875 42.304688 L 11.101562 8.523438 Z M 29.488281 10.953125" fill="#4eff40"/><g clip-path="url(#9ec27bdaf0)"><path fill-rule="evenodd" fill-opacity="1" d="M 259.542969 151.644531 L 196.074219 151.644531 L 196.074219 134.539062 C 196.191406 134.558594 196.304688 134.578125 196.417969 134.59375 C 207.839844 135.949219 222.574219 136.664062 239.019531 136.664062 L 239.023438 136.664062 C 245.050781 136.664062 251.152344 136.570312 257.253906 136.371094 L 259.542969 136.257812 Z M 183.78125 120.367188 C 165.980469 114.109375 154.789062 95.144531 148.523438 80.28125 C 147.769531 78.503906 146.179688 77.214844 144.277344 76.855469 L 45.351562 58.113281 C 43.050781 57.664062 40.714844 58.667969 39.4375 60.632812 L 34.359375 68.425781 L 23.59375 67.792969 L 28.019531 46.007812 C 28.257812 44.847656 28.125 43.640625 27.648438 42.554688 L 14.886719 13.371094 L 27.03125 14.082031 L 44.054688 38.425781 C 45.132812 39.96875 46.898438 40.890625 48.78125 40.890625 L 213.539062 40.890625 C 216.257812 46.601562 225.273438 65.324219 226.695312 68.085938 C 240.902344 95.710938 250.113281 99.9375 255.871094 100.488281 C 257.4375 100.773438 264.316406 101.953125 271.210938 101.953125 C 285.996094 101.953125 300.035156 99.429688 309.203125 95.25 C 311.679688 100.726562 312.871094 105.792969 312.222656 109.9375 C 311.855469 112.296875 310.742188 119.46875 294.609375 121.894531 C 288.476562 122.816406 280.46875 123.597656 271.535156 124.160156 L 256.796875 124.851562 C 250.90625 125.042969 244.929688 125.140625 239.023438 125.140625 L 239.019531 125.140625 C 223.128906 125.140625 208.949219 124.457031 197.996094 123.171875 Z M 231.347656 40.890625 C 231.492188 40.902344 231.640625 40.90625 231.789062 40.910156 C 244.460938 40.996094 253.996094 42.574219 260.128906 45.597656 C 275.304688 53.070312 293.085938 69.542969 303.511719 85.175781 C 295.929688 88.414062 283.84375 90.425781 271.210938 90.425781 C 264.667969 90.425781 257.8125 89.121094 257.742188 89.113281 C 257.519531 89.066406 257.292969 89.039062 257.066406 89.019531 C 254.511719 88.835938 247.394531 83.109375 236.957031 62.816406 C 235.902344 60.765625 230.050781 48.636719 226.332031 40.890625 Z M 323.359375 146.246094 C 321.96875 143.386719 318.523438 142.1875 315.648438 143.574219 L 298.972656 151.644531 L 271.085938 151.644531 L 271.085938 135.71875 L 272.164062 135.667969 C 281.511719 135.085938 289.871094 134.265625 296.324219 133.289062 C 316.582031 130.246094 322.355469 119.875 323.628906 111.710938 C 327.5625 86.441406 290.917969 47.910156 265.234375 35.257812 C 257.5 31.445312 246.746094 29.527344 232.355469 29.386719 C 232.183594 29.375 232.007812 29.363281 231.828125 29.363281 L 207.621094 29.363281 L 207.621094 11.527344 L 309.910156 11.527344 C 313.101562 11.527344 315.679688 8.945312 315.679688 5.765625 C 315.679688 2.582031 313.101562 0 309.910156 0 L 93.785156 0 C 90.601562 0 88.015625 2.582031 88.015625 5.765625 C 88.015625 8.945312 90.601562 11.527344 93.785156 11.527344 L 196.078125 11.527344 L 196.078125 29.363281 L 51.792969 29.363281 L 34.894531 5.195312 C 33.878906 3.75 32.265625 2.84375 30.5 2.742188 L 6.171875 1.308594 C 4.1875 1.183594 2.25 2.121094 1.101562 3.765625 C -0.046875 5.410156 -0.253906 7.535156 0.546875 9.371094 L 16.34375 45.5 L 10.960938 72.011719 C 10.628906 73.648438 11.023438 75.347656 12.042969 76.667969 C 13.0625 77.996094 14.609375 78.816406 16.277344 78.914062 L 37.027344 80.128906 C 39.085938 80.261719 41.074219 79.257812 42.203125 77.523438 L 47 70.15625 L 139.125 87.613281 C 149.40625 110.578125 163.636719 125.6875 180.414062 131.398438 C 180.65625 131.476562 180.902344 131.546875 181.15625 131.59375 L 184.535156 132.261719 L 184.535156 151.644531 L 145.59375 151.644531 C 142.40625 151.644531 139.824219 154.226562 139.824219 157.40625 C 139.824219 160.589844 142.40625 163.171875 145.59375 163.171875 L 301.621094 163.171875 L 320.679688 153.949219 C 323.550781 152.5625 324.746094 149.113281 323.359375 146.246094 Z M 323.359375 146.246094" fill="#4b4841"/></g></svg>